<?xml version="1.0" encoding="UTF-8"?>
<svg xmlns="http://www.w3.org/2000/svg" xmlns:xlink="http://www.w3.org/1999/xlink" viewBox="0 0 24 24" version="1.1" width="96px" height="96px">
<g id="surface1">
<path style=" " d="M 18 0 L 2 0 L 2 20 L 4.464844 24 L 21 24 L 21 5.722656 Z M 10 6 C 11.105469 6 12 6.894531 12 8 C 12 9.105469 11.105469 10 10 10 C 8.894531 10 8 9.105469 8 8 C 8 6.894531 8.894531 6 10 6 Z M 8.617188 11.023438 C 9.027344 11.242188 9.5 11.367188 9.996094 11.367188 C 10.496094 11.367188 10.964844 11.242188 11.378906 11.023438 C 12.269531 11.257813 12.964844 11.808594 13.285156 13 L 6.710938 13 C 7.03125 11.808594 7.726563 11.257813 8.617188 11.023438 Z M 19 22 L 5.535156 22 L 4.320313 20 L 18 20 L 18 4.136719 L 19 6.277344 Z "/>
</g>
</svg>
